<?xml version="1.0" encoding="UTF-8" standalone="no"?>
<svg width="306px" height="322px" viewBox="0 0 306 322" version="1.1" xmlns="http://www.w3.org/2000/svg" xmlns:xlink="http://www.w3.org/1999/xlink" xmlns:sketch="http://www.bohemiancoding.com/sketch/ns">
    <!-- Generator: Sketch 3.0.4 (8053) - http://www.bohemiancoding.com/sketch -->
    <title>heart 2</title>
    <desc>Created with Sketch.</desc>
    <defs></defs>
    <g id="Page-2" stroke="none" stroke-width="1" fill="none" fill-rule="evenodd" sketch:type="MSPage">
        <g id="Imported-Layers-2" sketch:type="MSLayerGroup" fill="#E4032E">
            <path d="M301.166839,169.999627 L301.166839,169.999627 L301.164107,94.0703898 L232.887857,25.8746102 L133.222018,125.421729 L149.945464,142.122068 L232.887857,59.2807458 L277.517411,103.855915 L277.517411,160.216831 L149.934536,287.641508 L22.3516607,160.216831 L22.3516607,103.855915 L66.9839464,59.2807458 L50.2605,42.577678 L-1.29503571,94.0703898 L-1.29776786,169.999627 L-1.29776786,170.231576 L-1.06553571,170.231576 L139.333821,310.465305 L139.352946,310.446203 L149.956393,321.028542 L300.934607,170.231576 L301.166839,170.231576 L301.166839,169.999627" id="Fill-1" sketch:type="MSShapeGroup"></path>
            <path d="M117.195268,109.414508 L176.553804,50.1283051 L159.830357,33.4252373 L100.474554,92.7141695 L117.195268,109.414508" id="Fill-2" sketch:type="MSShapeGroup"></path>
            <path d="M143.120571,16.7358136 L126.397125,0.0354745763 L67.0413214,59.3189492 L83.7647679,76.0220169 L143.120571,16.7358136" id="Fill-3" sketch:type="MSShapeGroup"></path>
        </g>
    </g>
</svg>